<svg aria-hidden="true" style="position: absolute; width: 0; height: 0; overflow: hidden;" version="1.1" xmlns="http://www.w3.org/2000/svg" xmlns:xlink="http://www.w3.org/1999/xlink">
<defs>
<symbol id="icon-moon" viewBox="0 0 32 32">
<path d="M10.895 7.574c0 7.55 5.179 13.67 11.567 13.67 1.588 0 3.101-0.38 4.479-1.063-1.695 4.46-5.996 7.636-11.051 7.636-6.533 0-11.83-5.297-11.83-11.83 0-4.82 2.888-8.959 7.023-10.803-0.116 0.778-0.188 1.573-0.188 2.39z"></path>
</symbol>
<symbol id="icon-moon-stroke" viewBox="0 0 32 32">
<path d="M5.895 9.148c0.848 8.959 8 16.109 16.957 16.953-1.91 1.211-4.152 1.898-6.5 1.898-6.813 0.001-12.352-5.538-12.352-12.353 0-2.347 0.688-4.587 1.895-6.498zM11.844 0c-6.824 1.969-11.844 8.189-11.844 15.646 0 9.034 7.32 16.354 16.352 16.354 7.457 0 13.68-5.023 15.648-11.844-2.18 1.258-4.672 2.031-7.367 2.031-8.188 0-14.82-6.639-14.82-14.822-0.001-2.695 0.773-5.187 2.031-7.365v0z"></path>
</symbol>
<symbol id="icon-notification" viewBox="0 0 32 32">
<path d="M16 3c-3.472 0-6.737 1.352-9.192 3.808s-3.808 5.72-3.808 9.192c0 3.472 1.352 6.737 3.808 9.192s5.72 3.808 9.192 3.808c3.472 0 6.737-1.352 9.192-3.808s3.808-5.72 3.808-9.192c0-3.472-1.352-6.737-3.808-9.192s-5.72-3.808-9.192-3.808zM16 0v0c8.837 0 16 7.163 16 16s-7.163 16-16 16c-8.837 0-16-7.163-16-16s7.163-16 16-16zM14 22h4v4h-4zM14 6h4v12h-4z"></path>
</symbol>
<symbol id="icon-moon-o" viewBox="0 0 23 28">
<path d="M19.719 20.359c-0.562 0.094-1.141 0.141-1.719 0.141-5.797 0-10.5-4.703-10.5-10.5 0-1.984 0.578-3.922 1.625-5.578-4.156 1.234-7.125 5.047-7.125 9.578 0 5.516 4.484 10 10 10 3.016 0 5.844-1.375 7.719-3.641zM22.891 19.031c-1.953 4.234-6.234 6.969-10.891 6.969-6.609 0-12-5.391-12-12 0-6.484 5.078-11.75 11.547-11.984 0.438-0.016 0.797 0.234 0.953 0.609 0.172 0.391 0.063 0.844-0.234 1.125-1.781 1.625-2.766 3.844-2.766 6.25 0 4.688 3.813 8.5 8.5 8.5 1.234 0 2.422-0.266 3.563-0.797 0.391-0.172 0.828-0.094 1.125 0.203s0.375 0.75 0.203 1.125z"></path>
</symbol>
<symbol id="icon-chevron-small-down" viewBox="0 0 20 20">
<path d="M13.418 7.859c0.271-0.268 0.709-0.268 0.978 0s0.272 0.701 0 0.969l-3.908 3.83c-0.27 0.268-0.707 0.268-0.979 0l-3.908-3.83c-0.27-0.267-0.27-0.701 0-0.969s0.709-0.268 0.978 0l3.421 3.141 3.418-3.141z"></path>
</symbol>
<symbol id="icon-magnifying-glass" viewBox="0 0 20 20">
<path d="M17.545 15.467l-3.779-3.779c0.57-0.935 0.898-2.035 0.898-3.21 0-3.417-2.961-6.377-6.378-6.377s-6.186 2.769-6.186 6.186c0 3.416 2.961 6.377 6.377 6.377 1.137 0 2.2-0.309 3.115-0.844l3.799 3.801c0.372 0.371 0.975 0.371 1.346 0l0.943-0.943c0.371-0.371 0.236-0.84-0.135-1.211zM4.004 8.287c0-2.366 1.917-4.283 4.282-4.283s4.474 2.107 4.474 4.474c0 2.365-1.918 4.283-4.283 4.283s-4.473-2.109-4.473-4.474z"></path>
</symbol>
</defs>
</svg>
